<?xml version="1.0" encoding="UTF-8" standalone="no"?>
<!DOCTYPE svg PUBLIC "-//W3C//DTD SVG 1.1//EN"
 "http://www.w3.org/Graphics/SVG/1.1/DTD/svg11.dtd">
<!-- Generated by graphviz version 2.50.0 (0)
 -->
<!-- Title: snakemake_dag Pages: 1 -->
<svg width="96pt" height="692pt"
 viewBox="0.00 0.00 96.00 692.00" xmlns="http://www.w3.org/2000/svg" xmlns:xlink="http://www.w3.org/1999/xlink">
<g id="graph0" class="graph" transform="scale(1 1) rotate(0) translate(4 688)">
<title>snakemake_dag</title>
<polygon fill="white" stroke="transparent" points="-4,4 -4,-688 92,-688 92,4 -4,4"/>
<!-- 0 -->
<g id="node1" class="node">
<title>0</title>
<path fill="none" stroke="#68d856" stroke-width="2" d="M59,-36C59,-36 29,-36 29,-36 23,-36 17,-30 17,-24 17,-24 17,-12 17,-12 17,-6 23,0 29,0 29,0 59,0 59,0 65,0 71,-6 71,-12 71,-12 71,-24 71,-24 71,-30 65,-36 59,-36"/>
<text text-anchor="middle" x="44" y="-15.5" font-family="sans" font-size="10.00">all</text>
</g>
<!-- 1 -->
<g id="node2" class="node">
<title>1</title>
<path fill="none" stroke="#d87556" stroke-width="2" d="M76,-108C76,-108 12,-108 12,-108 6,-108 0,-102 0,-96 0,-96 0,-84 0,-84 0,-78 6,-72 12,-72 12,-72 76,-72 76,-72 82,-72 88,-78 88,-84 88,-84 88,-96 88,-96 88,-102 82,-108 76,-108"/>
<text text-anchor="middle" x="44" y="-87.5" font-family="sans" font-size="10.00">index_featurefile</text>
</g>
<!-- 1&#45;&gt;0 -->
<g id="edge1" class="edge">
<title>1&#45;&gt;0</title>
<path fill="none" stroke="grey" stroke-width="2" d="M44,-71.7C44,-63.98 44,-54.71 44,-46.11"/>
<polygon fill="grey" stroke="grey" stroke-width="2" points="47.5,-46.1 44,-36.1 40.5,-46.1 47.5,-46.1"/>
</g>
<!-- 2 -->
<g id="node3" class="node">
<title>2</title>
<path fill="none" stroke="#56d882" stroke-width="2" d="M72,-180C72,-180 16,-180 16,-180 10,-180 4,-174 4,-168 4,-168 4,-156 4,-156 4,-150 10,-144 16,-144 16,-144 72,-144 72,-144 78,-144 84,-150 84,-156 84,-156 84,-168 84,-168 84,-174 78,-180 72,-180"/>
<text text-anchor="middle" x="44" y="-159.5" font-family="sans" font-size="10.00">genotype_gvcf</text>
</g>
<!-- 2&#45;&gt;1 -->
<g id="edge2" class="edge">
<title>2&#45;&gt;1</title>
<path fill="none" stroke="grey" stroke-width="2" d="M44,-143.7C44,-135.98 44,-126.71 44,-118.11"/>
<polygon fill="grey" stroke="grey" stroke-width="2" points="47.5,-118.1 44,-108.1 40.5,-118.1 47.5,-118.1"/>
</g>
<!-- 3 -->
<g id="node4" class="node">
<title>3</title>
<path fill="none" stroke="#d85656" stroke-width="2" d="M66,-252C66,-252 22,-252 22,-252 16,-252 10,-246 10,-240 10,-240 10,-228 10,-228 10,-222 16,-216 22,-216 22,-216 66,-216 66,-216 72,-216 78,-222 78,-228 78,-228 78,-240 78,-240 78,-246 72,-252 66,-252"/>
<text text-anchor="middle" x="44" y="-231.5" font-family="sans" font-size="10.00">gatk_calling</text>
</g>
<!-- 3&#45;&gt;2 -->
<g id="edge3" class="edge">
<title>3&#45;&gt;2</title>
<path fill="none" stroke="grey" stroke-width="2" d="M44,-215.7C44,-207.98 44,-198.71 44,-190.11"/>
<polygon fill="grey" stroke="grey" stroke-width="2" points="47.5,-190.1 44,-180.1 40.5,-190.1 47.5,-190.1"/>
</g>
<!-- 4 -->
<g id="node5" class="node">
<title>4</title>
<path fill="none" stroke="#56d8a2" stroke-width="2" d="M59,-324C59,-324 29,-324 29,-324 23,-324 17,-318 17,-312 17,-312 17,-300 17,-300 17,-294 23,-288 29,-288 29,-288 59,-288 59,-288 65,-288 71,-294 71,-300 71,-300 71,-312 71,-312 71,-318 65,-324 59,-324"/>
<text text-anchor="middle" x="44" y="-303.5" font-family="sans" font-size="10.00">fgbio</text>
</g>
<!-- 4&#45;&gt;3 -->
<g id="edge4" class="edge">
<title>4&#45;&gt;3</title>
<path fill="none" stroke="grey" stroke-width="2" d="M44,-287.7C44,-279.98 44,-270.71 44,-262.11"/>
<polygon fill="grey" stroke="grey" stroke-width="2" points="47.5,-262.1 44,-252.1 40.5,-262.1 47.5,-262.1"/>
</g>
<!-- 5 -->
<g id="node6" class="node">
<title>5</title>
<path fill="none" stroke="#9fd856" stroke-width="2" d="M74.5,-396C74.5,-396 13.5,-396 13.5,-396 7.5,-396 1.5,-390 1.5,-384 1.5,-384 1.5,-372 1.5,-372 1.5,-366 7.5,-360 13.5,-360 13.5,-360 74.5,-360 74.5,-360 80.5,-360 86.5,-366 86.5,-372 86.5,-372 86.5,-384 86.5,-384 86.5,-390 80.5,-396 74.5,-396"/>
<text text-anchor="middle" x="44" y="-375.5" font-family="sans" font-size="10.00">samtools_index</text>
</g>
<!-- 5&#45;&gt;4 -->
<g id="edge5" class="edge">
<title>5&#45;&gt;4</title>
<path fill="none" stroke="grey" stroke-width="2" d="M44,-359.7C44,-351.98 44,-342.71 44,-334.11"/>
<polygon fill="grey" stroke="grey" stroke-width="2" points="47.5,-334.1 44,-324.1 40.5,-334.1 47.5,-334.1"/>
</g>
<!-- 6 -->
<g id="node7" class="node">
<title>6</title>
<path fill="none" stroke="#56d8c1" stroke-width="2" d="M71,-468C71,-468 17,-468 17,-468 11,-468 5,-462 5,-456 5,-456 5,-444 5,-444 5,-438 11,-432 17,-432 17,-432 71,-432 71,-432 77,-432 83,-438 83,-444 83,-444 83,-456 83,-456 83,-462 77,-468 71,-468"/>
<text text-anchor="middle" x="44" y="-447.5" font-family="sans" font-size="10.00">samtools_sort</text>
</g>
<!-- 6&#45;&gt;5 -->
<g id="edge6" class="edge">
<title>6&#45;&gt;5</title>
<path fill="none" stroke="grey" stroke-width="2" d="M44,-431.7C44,-423.98 44,-414.71 44,-406.11"/>
<polygon fill="grey" stroke="grey" stroke-width="2" points="47.5,-406.1 44,-396.1 40.5,-406.1 47.5,-406.1"/>
</g>
<!-- 7 -->
<g id="node8" class="node">
<title>7</title>
<path fill="none" stroke="#56d863" stroke-width="2" d="M73,-540C73,-540 15,-540 15,-540 9,-540 3,-534 3,-528 3,-528 3,-516 3,-516 3,-510 9,-504 15,-504 15,-504 73,-504 73,-504 79,-504 85,-510 85,-516 85,-516 85,-528 85,-528 85,-534 79,-540 73,-540"/>
<text text-anchor="middle" x="44" y="-519.5" font-family="sans" font-size="10.00">samtools_view</text>
</g>
<!-- 7&#45;&gt;6 -->
<g id="edge7" class="edge">
<title>7&#45;&gt;6</title>
<path fill="none" stroke="grey" stroke-width="2" d="M44,-503.7C44,-495.98 44,-486.71 44,-478.11"/>
<polygon fill="grey" stroke="grey" stroke-width="2" points="47.5,-478.1 44,-468.1 40.5,-478.1 47.5,-478.1"/>
</g>
<!-- 8 -->
<g id="node9" class="node">
<title>8</title>
<path fill="none" stroke="#bed856" stroke-width="2" d="M70.5,-612C70.5,-612 17.5,-612 17.5,-612 11.5,-612 5.5,-606 5.5,-600 5.5,-600 5.5,-588 5.5,-588 5.5,-582 11.5,-576 17.5,-576 17.5,-576 70.5,-576 70.5,-576 76.5,-576 82.5,-582 82.5,-588 82.5,-588 82.5,-600 82.5,-600 82.5,-606 76.5,-612 70.5,-612"/>
<text text-anchor="middle" x="44" y="-591.5" font-family="sans" font-size="10.00">bwa_mapping</text>
</g>
<!-- 8&#45;&gt;7 -->
<g id="edge8" class="edge">
<title>8&#45;&gt;7</title>
<path fill="none" stroke="grey" stroke-width="2" d="M44,-575.7C44,-567.98 44,-558.71 44,-550.11"/>
<polygon fill="grey" stroke="grey" stroke-width="2" points="47.5,-550.1 44,-540.1 40.5,-550.1 47.5,-550.1"/>
</g>
<!-- 9 -->
<g id="node10" class="node">
<title>9</title>
<path fill="none" stroke="#5692d8" stroke-width="2" d="M63.5,-684C63.5,-684 24.5,-684 24.5,-684 18.5,-684 12.5,-678 12.5,-672 12.5,-672 12.5,-660 12.5,-660 12.5,-654 18.5,-648 24.5,-648 24.5,-648 63.5,-648 63.5,-648 69.5,-648 75.5,-654 75.5,-660 75.5,-660 75.5,-672 75.5,-672 75.5,-678 69.5,-684 63.5,-684"/>
<text text-anchor="middle" x="44" y="-663.5" font-family="sans" font-size="10.00">bwa_index</text>
</g>
<!-- 9&#45;&gt;8 -->
<g id="edge9" class="edge">
<title>9&#45;&gt;8</title>
<path fill="none" stroke="grey" stroke-width="2" d="M44,-647.7C44,-639.98 44,-630.71 44,-622.11"/>
<polygon fill="grey" stroke="grey" stroke-width="2" points="47.5,-622.1 44,-612.1 40.5,-622.1 47.5,-622.1"/>
</g>
</g>
</svg>
